<svg xmlns="http://www.w3.org/2000/svg" viewBox="0 0 420 370" width="420" height="370">
	<defs>
		<linearGradient id="grd1" gradientUnits="userSpaceOnUse"  x1="141.007" y1="272" x2="278.993" y2="33">
			<stop offset="0" stop-color="#16a596"  />
			<stop offset="1" stop-color="#7043ef"  />
		</linearGradient>
		<linearGradient id="grd2" gradientUnits="userSpaceOnUse"  x1="134.481" y1="86.705" x2="152.039" y2="56.295">
			<stop offset="0" stop-color="#16a596"  />
			<stop offset="1" stop-color="#7043ef"  />
		</linearGradient>
		<linearGradient id="grd3" gradientUnits="userSpaceOnUse"  x1="267" y1="89.787" x2="286.961" y2="55.213">
			<stop offset="0" stop-color="#16a596"  />
			<stop offset="1" stop-color="#7043ef"  />
		</linearGradient>
		<linearGradient id="grd4" gradientUnits="userSpaceOnUse"  x1="169.633" y1="148.653" x2="179.367" y2="131.794">
			<stop offset="0" stop-color="#16a596"  />
			<stop offset="1" stop-color="#7043ef"  />
		</linearGradient>
		<linearGradient id="grd5" gradientUnits="userSpaceOnUse"  x1="250.588" y1="149.028" x2="260.412" y2="132.013">
			<stop offset="0" stop-color="#16a596"  />
			<stop offset="1" stop-color="#7043ef"  />
		</linearGradient>
		<linearGradient id="grd6" gradientUnits="userSpaceOnUse"  x1="147.583" y1="244.052" x2="217.417" y2="123.096">
			<stop offset="0" stop-color="#16a596"  />
			<stop offset="1" stop-color="#7043ef"  />
		</linearGradient>
		<linearGradient id="grd7" gradientUnits="userSpaceOnUse"  x1="146.5" y1="341.2" x2="146.5" y2="290.2">
			<stop offset="0" stop-color="#16a596"  />
			<stop offset="1" stop-color="#7043ef"  />
		</linearGradient>
		<linearGradient id="grd8" gradientUnits="userSpaceOnUse"  x1="190" y1="341.2" x2="190" y2="290.2">
			<stop offset="0" stop-color="#16a596"  />
			<stop offset="1" stop-color="#7043ef"  />
		</linearGradient>
		<linearGradient id="grd9" gradientUnits="userSpaceOnUse"  x1="233.025" y1="313" x2="233.025" y2="300">
			<stop offset="0" stop-color="#16a596"  />
			<stop offset="1" stop-color="#7043ef"  />
		</linearGradient>
		<linearGradient id="grd10" gradientUnits="userSpaceOnUse"  x1="230" y1="341.2" x2="230" y2="290.2">
			<stop offset="0" stop-color="#16a596"  />
			<stop offset="1" stop-color="#7043ef"  />
		</linearGradient>
		<linearGradient id="grd11" gradientUnits="userSpaceOnUse"  x1="284" y1="341.2" x2="284" y2="290.2">
			<stop offset="0" stop-color="#16a596"  />
			<stop offset="1" stop-color="#7043ef"  />
		</linearGradient>
		<linearGradient id="grd12" gradientUnits="userSpaceOnUse"  x1="288" y1="322" x2="288" y2="304">
			<stop offset="0" stop-color="#16a596"  />
			<stop offset="1" stop-color="#7043ef"  />
		</linearGradient>
	</defs>
	<style>
		tspan { white-space:pre }
		.shp0 { fill: none;stroke: url(#grd1);stroke-width: 4 } 
		.shp1 { fill: none;stroke: url(#grd2);stroke-width: 4 } 
		.shp2 { fill: none;stroke: url(#grd3);stroke-width: 4 } 
		.shp3 { fill: none;stroke: url(#grd4);stroke-width: 4 } 
		.shp4 { fill: none;stroke: url(#grd5);stroke-width: 4 } 
		.shp5 { fill: none;stroke: url(#grd6);stroke-width: 4 } 
		.shp6 { fill: none;stroke: url(#grd7);stroke-width: 3 } 
		.shp7 { fill: none;stroke: url(#grd8);stroke-width: 3 } 
		.shp8 { fill: none;stroke: url(#grd9);stroke-width: 3 } 
		.shp9 { fill: none;stroke: url(#grd10);stroke-width: 3 } 
		.shp10 { fill: none;stroke: url(#grd11);stroke-width: 3 } 
		.shp11 { fill: none;stroke: url(#grd12);stroke-width: 3 } 
	</style>
	<g id="LOGO">
		<path id="Forma 1" class="shp0" d="M134 120C134 120 107 45.45 145 34L180 70L239 70L275 33C275 33 311 44.45 289 116L288 122L300 179C300 179 299.33 195.63 292 202L277 196L288 210L280 220L268 207L271 232C271 232 232.33 268.96 211 272C211 272 144.67 247.96 120 188L134 120Z" />
		<path id="Forma 2" class="shp1" d="M141 48C141 48 126.33 75.63 141 95L145 82C145 82 152.67 86.3 152 86C151.33 85.7 141 48 141 48Z" />
		<path id="Forma 2 copy" class="shp2" d="M279.55 49C279.55 49 296.22 76.63 279.55 96L275 83C275 83 266.29 87.3 267.04 87C267.8 86.7 279.55 49 279.55 49Z" />
		<path id="Forma 3" class="shp3" d="M159 134C159 134 170.67 152.3 190 148C190 148 184 124.63 159 134Z" />
		<path id="Forma 3 cópia" class="shp4" d="M271 134.24C271 134.24 259.33 152.71 240 148.37C240 148.37 246 124.78 271 134.24Z" />
		<path id="Forma 6" class="shp5" d="M220 210C220.33 210.04 206 194 206 194L198 150C198 150 190.33 114.63 153 125C153 125 152 137.63 161 146C161 146 165.33 167.3 165 167C164.67 166.7 147.33 180.96 144 193L158 204C158 204 167 192.63 172 195C172 195 161.67 205.3 164 221L181 233L184 215C184 215 189.67 236.3 204 242C203.67 242.37 207 244 207 244C207 244 220.04 243.3 220.04 244C220.04 244.7 221 238 221 238C221 238 201.67 233.63 199 226C199 226 198.67 210.63 199 211C199.33 211.37 221 211 221 211" />
	</g>
	<g id="HIRA">
		<path id="H" class="shp6" d="M115 341.2L126 290.2L141 290.2L137 310L159 310L163 290.2L178 290.2L166 341.2L152 341.2L157 319L134 319L130 341.2L115 341.2Z" />
		<path id="I" class="shp7" d="M177 341.2L189 290.2L203 290.2L192 341.2L178 341.2" />
		<path id="Forma 16" class="shp8" d="M223 313L226 300L239 300C239 300 243.58 301.92 243 307C243 307 238.58 312.83 237 313L223 313Z" />
		<path id="Forma 19" class="shp9" d="M203 341.2L213 290.2L241 290.2C241 290.2 255 292.37 257 304C257 304 256.57 314.37 244 319L242 320L252 341.2L237 341.2L230 323L220 323L217 341.2L204 341.2" />
		<path id="Forma 17" class="shp10" d="M255 341.2C255 341.2 255.15 340.96 255.44 340.52C259.35 334.48 288 290.2 288 290.2L301 290.2L313 341.2L298 341.2L297 332L275 332L270 341.2L257 341.2" />
		<path id="Forma 18" class="shp11" d="M281 322L292 304L295 322L281 322Z" />
	</g>
</svg>