<svg width="247" height="40" viewBox="0 0 247 40" fill="none" xmlns="http://www.w3.org/2000/svg">
<path d="M32.121 39.2349L23.229 26.2349C25.5516 25.3682 27.4236 24.0162 28.845 22.1789C30.301 20.3069 31.029 17.8975 31.029 14.9509V14.8469C31.029 11.0682 29.8156 8.12153 27.389 6.00686C24.997 3.89219 21.6343 2.83486 17.301 2.83486H0.660969V39.2349H8.66897V27.5869H14.961L22.761 39.2349H32.121ZM22.917 15.3669C22.917 16.9269 22.3796 18.1749 21.305 19.1109C20.265 20.0469 18.757 20.5149 16.781 20.5149H8.66897V10.0629H16.625C18.601 10.0629 20.1436 10.4962 21.253 11.3629C22.3623 12.2295 22.917 13.5295 22.917 15.2629V15.3669ZM45.8831 8.29486V1.27486H37.5631V8.29486H45.8831ZM45.6751 39.2349V11.3629H37.7711V39.2349H45.6751ZM68.6985 8.24286V1.69086C67.9705 1.44819 67.1558 1.25753 66.2545 1.11886C65.3878 0.980194 64.3305 0.910861 63.0825 0.910861C60.2745 0.910861 58.1252 1.63886 56.6345 3.09486C55.1785 4.51619 54.4505 6.76953 54.4505 9.85486V11.6229H51.1745V18.1229H54.4505V39.2349H62.3545V18.1229H68.6465V11.6749H62.2505V10.5829C62.2505 8.5722 63.2038 7.56686 65.1105 7.56686C65.8038 7.56686 66.4278 7.6362 66.9825 7.77486C67.5372 7.87886 68.1092 8.03486 68.6985 8.24286ZM96.926 39.2349V23.0629C96.926 19.2842 95.938 16.3375 93.962 14.2229C91.986 12.1082 88.8313 11.0509 84.498 11.0509C82.1406 11.0509 80.13 11.2589 78.466 11.6749C76.802 12.0909 75.2073 12.6282 73.682 13.2869L75.658 19.3189C76.9406 18.8335 78.154 18.4695 79.298 18.2269C80.4766 17.9495 81.8286 17.8109 83.354 17.8109C85.33 17.8109 86.8206 18.2442 87.826 19.1109C88.8313 19.9775 89.334 21.2429 89.334 22.9069V23.3749C88.3286 23.0282 87.2886 22.7509 86.214 22.5429C85.174 22.3349 83.9433 22.2309 82.522 22.2309C80.858 22.2309 79.3326 22.4215 77.946 22.8029C76.594 23.1495 75.4153 23.6869 74.41 24.4149C73.4393 25.1429 72.6766 26.0615 72.122 27.1709C71.5673 28.2802 71.29 29.5975 71.29 31.1229V31.2269C71.29 32.6135 71.5326 33.8442 72.018 34.9189C72.538 35.9589 73.2313 36.8429 74.098 37.5709C74.9646 38.2989 75.97 38.8535 77.114 39.2349C78.2926 39.5815 79.5406 39.7549 80.858 39.7549C82.7993 39.7549 84.446 39.4429 85.798 38.8189C87.15 38.1602 88.3113 37.2935 89.282 36.2189V39.2349H96.926ZM89.438 29.4069C89.438 30.8629 88.866 32.0415 87.722 32.9429C86.6126 33.8442 85.122 34.2949 83.25 34.2949C81.9673 34.2949 80.9273 34.0002 80.13 33.4109C79.3326 32.8215 78.934 31.9895 78.934 30.9149V30.8109C78.934 29.5629 79.4193 28.6095 80.39 27.9509C81.3606 27.2922 82.6953 26.9629 84.394 26.9629C85.3646 26.9629 86.266 27.0669 87.098 27.2749C87.9646 27.4482 88.7446 27.6909 89.438 28.0029V29.4069ZM124.163 30.7589V30.6549C124.163 29.3722 123.903 28.2802 123.383 27.3789C122.863 26.4775 122.205 25.7149 121.407 25.0909C120.61 24.4669 119.709 23.9469 118.703 23.5309C117.698 23.0802 116.71 22.6989 115.739 22.3869C114.977 22.1442 114.249 21.9015 113.555 21.6589C112.897 21.4162 112.307 21.1735 111.787 20.9309C111.267 20.6535 110.851 20.3762 110.539 20.0989C110.227 19.7869 110.071 19.4402 110.071 19.0589V18.9549C110.071 18.4002 110.314 17.9495 110.799 17.6029C111.285 17.2215 112.013 17.0309 112.983 17.0309C113.989 17.0309 115.15 17.2735 116.467 17.7589C117.785 18.2095 119.137 18.8335 120.523 19.6309L123.539 14.1709C122.014 13.1655 120.333 12.3855 118.495 11.8309C116.693 11.2415 114.907 10.9469 113.139 10.9469C111.718 10.9469 110.383 11.1375 109.135 11.5189C107.922 11.9002 106.847 12.4722 105.911 13.2349C105.01 13.9975 104.282 14.9335 103.727 16.0429C103.207 17.1175 102.947 18.3655 102.947 19.7869V19.8909C102.947 21.2429 103.19 22.3869 103.675 23.3229C104.195 24.2589 104.854 25.0562 105.651 25.7149C106.449 26.3389 107.333 26.8589 108.303 27.2749C109.309 27.6562 110.297 27.9855 111.267 28.2629C112.03 28.5055 112.758 28.7309 113.451 28.9389C114.145 29.1469 114.751 29.3722 115.271 29.6149C115.826 29.8229 116.259 30.0829 116.571 30.3949C116.883 30.7069 117.039 31.0709 117.039 31.4869V31.5909C117.039 32.2149 116.762 32.7175 116.207 33.0989C115.687 33.4802 114.855 33.6709 113.711 33.6709C112.394 33.6709 110.973 33.3935 109.447 32.8389C107.957 32.2842 106.449 31.4522 104.923 30.3429L101.543 35.5429C103.415 36.9989 105.374 38.0735 107.419 38.7669C109.499 39.4255 111.527 39.7549 113.503 39.7549C114.994 39.7549 116.381 39.5815 117.663 39.2349C118.981 38.8535 120.125 38.2989 121.095 37.5709C122.066 36.8429 122.811 35.9242 123.331 34.8149C123.886 33.6709 124.163 32.3189 124.163 30.7589ZM166.391 34.6069L164.623 33.0469C163.514 34.2949 162.214 35.3522 160.723 36.2189C159.267 37.0509 157.603 37.4669 155.731 37.4669C154.206 37.4669 152.784 37.1722 151.467 36.5829C150.15 35.9935 148.988 35.1789 147.983 34.1389C147.012 33.0989 146.232 31.8855 145.643 30.4989C145.088 29.0775 144.811 27.5695 144.811 25.9749V25.8709C144.811 24.2762 145.088 22.7855 145.643 21.3989C146.198 20.0122 146.943 18.8162 147.879 17.8109C148.85 16.7709 149.976 15.9562 151.259 15.3669C152.576 14.7775 153.998 14.4829 155.523 14.4829C157.499 14.4829 159.18 14.9162 160.567 15.7829C161.954 16.6495 163.219 17.6722 164.363 18.8509L166.183 16.9789C165.559 16.3202 164.883 15.6962 164.155 15.1069C163.462 14.5175 162.682 13.9975 161.815 13.5469C160.948 13.0962 159.995 12.7495 158.955 12.5069C157.95 12.2295 156.823 12.0909 155.575 12.0909C153.668 12.0909 151.883 12.4722 150.219 13.2349C148.59 13.9629 147.168 14.9682 145.955 16.2509C144.742 17.5335 143.788 19.0069 143.095 20.6709C142.402 22.3349 142.055 24.1029 142.055 25.9749V26.0789C142.055 27.9509 142.402 29.7189 143.095 31.3829C143.788 33.0469 144.742 34.5029 145.955 35.7509C147.168 36.9989 148.59 38.0042 150.219 38.7669C151.883 39.4949 153.668 39.8589 155.575 39.8589C158.002 39.8589 160.064 39.3735 161.763 38.4029C163.496 37.3975 165.039 36.1322 166.391 34.6069ZM198.248 25.9749V25.8709C198.248 23.9989 197.902 22.2309 197.208 20.5669C196.55 18.9029 195.614 17.4469 194.4 16.1989C193.187 14.9509 191.748 13.9629 190.084 13.2349C188.455 12.4722 186.652 12.0909 184.676 12.0909C182.7 12.0909 180.88 12.4722 179.216 13.2349C177.552 13.9629 176.096 14.9682 174.848 16.2509C173.635 17.5335 172.682 19.0069 171.988 20.6709C171.33 22.3349 171 24.1029 171 25.9749V26.0789C171 27.9509 171.33 29.7189 171.988 31.3829C172.682 33.0469 173.635 34.5029 174.848 35.7509C176.062 36.9989 177.483 38.0042 179.112 38.7669C180.776 39.4949 182.596 39.8589 184.572 39.8589C186.548 39.8589 188.368 39.4949 190.032 38.7669C191.696 38.0042 193.135 36.9815 194.348 35.6989C195.596 34.4162 196.55 32.9429 197.208 31.2789C197.902 29.6149 198.248 27.8469 198.248 25.9749ZM195.492 26.0789C195.492 27.6389 195.215 29.1122 194.66 30.4989C194.14 31.8855 193.395 33.0989 192.424 34.1389C191.488 35.1442 190.344 35.9589 188.992 36.5829C187.675 37.1722 186.236 37.4669 184.676 37.4669C183.151 37.4669 181.712 37.1722 180.36 36.5829C179.043 35.9935 177.882 35.1789 176.876 34.1389C175.906 33.0989 175.143 31.8855 174.588 30.4989C174.034 29.0775 173.756 27.5695 173.756 25.9749V25.8709C173.756 24.3109 174.016 22.8375 174.536 21.4509C175.091 20.0642 175.836 18.8682 176.772 17.8629C177.743 16.8229 178.887 16.0082 180.204 15.4189C181.556 14.7949 183.012 14.4829 184.572 14.4829C186.098 14.4829 187.519 14.7775 188.836 15.3669C190.188 15.9562 191.35 16.7709 192.32 17.8109C193.326 18.8509 194.106 20.0815 194.66 21.5029C195.215 22.8895 195.492 24.3802 195.492 25.9749V26.0789ZM246.174 39.2349V23.1669C246.174 21.5029 245.931 19.9949 245.446 18.6429C244.995 17.2562 244.319 16.0949 243.418 15.1589C242.551 14.1882 241.477 13.4429 240.194 12.9229C238.946 12.3682 237.542 12.0909 235.982 12.0909C234.734 12.0909 233.607 12.2469 232.602 12.5589C231.631 12.8709 230.747 13.3042 229.95 13.8589C229.187 14.3789 228.511 14.9855 227.922 15.6789C227.333 16.3722 226.83 17.0829 226.414 17.8109C226.033 17.0482 225.565 16.3202 225.01 15.6269C224.49 14.9335 223.866 14.3269 223.138 13.8069C222.41 13.2869 221.561 12.8709 220.59 12.5589C219.654 12.2469 218.614 12.0909 217.47 12.0909C216.291 12.0909 215.234 12.2469 214.298 12.5589C213.397 12.8362 212.599 13.2349 211.906 13.7549C211.213 14.2402 210.589 14.8122 210.034 15.4709C209.514 16.0949 209.046 16.7535 208.63 17.4469V12.7149H206.082V39.2349H208.63V23.9469C208.63 22.5949 208.838 21.3469 209.254 20.2029C209.705 19.0589 210.311 18.0535 211.074 17.1869C211.837 16.3202 212.738 15.6442 213.778 15.1589C214.818 14.6735 215.927 14.4309 217.106 14.4309C219.498 14.4309 221.387 15.2282 222.774 16.8229C224.161 18.3829 224.854 20.5495 224.854 23.3229V39.2349H227.402V23.7909C227.402 22.3002 227.627 20.9829 228.078 19.8389C228.529 18.6602 229.135 17.6722 229.898 16.8749C230.661 16.0775 231.545 15.4709 232.55 15.0549C233.59 14.6389 234.665 14.4309 235.774 14.4309C238.235 14.4309 240.159 15.2282 241.546 16.8229C242.933 18.3829 243.626 20.6015 243.626 23.4789V39.2349H246.174Z" fill="#0080F2"/>
<path d="M135.081 39.2349V33.7749H130.297V39.2349H135.081Z" fill="#FF5656"/>
</svg>
